<svg xmlns="http://www.w3.org/2000/svg" width="52" height="53" viewBox="0 0 52 53">
  <g id="Instagram" transform="translate(0.006 0.896)">
    <ellipse id="Stroke" cx="25.5" cy="26" rx="25.5" ry="26" transform="translate(0.494 -0.396)" fill="none" stroke="#fff" stroke-width="1" opacity="0.3"/>
    <path id="Instagram-2" data-name="Instagram" d="M17.328,19H1.672A1.694,1.694,0,0,1,0,17.328V8.873H4.655A4.056,4.056,0,0,0,4.5,10.051a5,5,0,1,0,9.993,0,4.086,4.086,0,0,0-.152-1.178H19v8.455A1.694,1.694,0,0,1,17.328,19ZM9.5,13.3a3.163,3.163,0,1,1,3.174-3.173A3.176,3.176,0,0,1,9.5,13.3ZM6.327,6.327H0V1.672A1.694,1.694,0,0,1,1.672,0H17.328A1.694,1.694,0,0,1,19,1.672V6.326H12.673A5.581,5.581,0,0,0,9.5,5.054,5.451,5.451,0,0,0,6.327,6.327Zm8.266-5.054a.656.656,0,0,0-.665.646V4.408a.674.674,0,0,0,.665.665h2.489a.656.656,0,0,0,.646-.665V1.919a.639.639,0,0,0-.646-.646Z" transform="translate(15.494 15.604)" fill="#fff" opacity="0.7"/>
  </g>
</svg>
