<svg xmlns="http://www.w3.org/2000/svg" width="52" height="52" viewBox="0 0 52 52">
  <g id="Twitter" transform="translate(0.045 0.759)">
    <circle id="Stroke" cx="25.5" cy="25.5" r="25.5" transform="translate(0.455 -0.259)" fill="none" stroke="#fff" stroke-width="1" opacity="0.3"/>
    <path id="Twitter-2" data-name="Twitter" d="M16.288,2.313h0a3.05,3.05,0,0,0-2.742-.991h0A3.041,3.041,0,0,0,15.16.661c0-.165,0-.33-.161-.33a2.981,2.981,0,0,0-1.29.33c.484-.33.645-.5.645-.661A2.98,2.98,0,0,0,12.74.826c.161-.33.323-.5.161-.661a1.275,1.275,0,0,0-.645.661,3.46,3.46,0,0,0-.968,1.322h0a14.744,14.744,0,0,0-1.451,3.3H9.676A3.84,3.84,0,0,0,8.225,4.13,16.311,16.311,0,0,0,5.806,2.808,17.255,17.255,0,0,0,2.742,1.487,3.079,3.079,0,0,0,4.354,4.295h0a2.685,2.685,0,0,0-1.129.165c0,.991.806,1.817,2.258,2.147h0a2.56,2.56,0,0,0-1.451.5,2.467,2.467,0,0,0,2.58,1.322,2.315,2.315,0,0,1-.484.33.739.739,0,0,0-.161.826c.323.5.645.661,1.451.661h0a5.076,5.076,0,0,1-4.193,1.652h0A5.139,5.139,0,0,1,0,10.407a10.742,10.742,0,0,0,4.677,3.8,11.314,11.314,0,0,0,6.612.165h0a11.5,11.5,0,0,0,5.483-3.8A7.958,7.958,0,0,0,18.062,7.6a2.8,2.8,0,0,0,2.419-.991h0a3.714,3.714,0,0,1-2.258-.165h0c1.129-.165,1.935-.5,2.1-1.156a3.076,3.076,0,0,1-2.419,0,4.563,4.563,0,0,0-1.613-2.973Z" transform="translate(14.792 18.206)" fill="#fff" opacity="0.7"/>
  </g>
</svg>
